# xmcd
#
# Track frame offsets: 
#        187
#        24132
#        47939
#        75152
#        102814
#        125872
#        148602
#        177344
#        198487
#        222482
#
# Disc length: 3308 seconds
#
# Revision: 1
# Processed by: cddbd v1.5.2PL0 Copyright (c) Steve Scherf et al.
# Submitted via: ExactAudioCopy v1.3
#
DISCID=890cea0a
DTITLE=Yumuri y sus Hermanos - Provocación
DYEAR=1995
DGENRE=Salsa
TTITLE0=Una Miradita
TTITLE1=Confesion
TTITLE2=Amor de Adolescentes
TTITLE3=Mujer de Acero
TTITLE4=Cha Cha Cha Discoteca
TTITLE5=El Lobo
TTITLE6=Esa Que Te Toca a Ti
TTITLE7=Bachata Provocacion
TTITLE8=Se Volvio Loca
TTITLE9=El Niche
EXTD=YEAR: 1997
EXTT0=
EXTT1=
EXTT2=
EXTT3=
EXTT4=
EXTT5=
EXTT6=
EXTT7=
EXTT8=
EXTT9=
PLAYORDER=
